<?xml version="1.0" standalone="no"?>
<!DOCTYPE svg PUBLIC "-//W3C//DTD SVG 20010904//EN"
 "http://www.w3.org/TR/2001/REC-SVG-20010904/DTD/svg10.dtd">
<svg version="1.0" xmlns="http://www.w3.org/2000/svg"
 width="900.000000pt" height="900.000000pt" viewBox="0 0 900.000000 900.000000"
 preserveAspectRatio="xMidYMid meet">
<metadata>
Created by potrace 1.10, written by Peter Selinger 2001-2011
</metadata>
<g transform="translate(0.000000,900.000000) scale(0.100000,-0.100000)"
fill="#000000" stroke="none">
<path d="M3890 8950 c-36 -4 -106 -12 -157 -18 -51 -6 -97 -14 -104 -17 -6 -4
-36 -11 -67 -15 -54 -7 -90 -14 -192 -40 -25 -6 -63 -15 -85 -20 -71 -15 -129
-32 -163 -46 -18 -8 -43 -14 -55 -14 -13 0 -32 -7 -43 -15 -10 -8 -31 -15 -45
-15 -14 0 -34 -7 -45 -15 -10 -8 -27 -15 -36 -15 -10 0 -32 -6 -50 -14 -18 -8
-53 -22 -78 -31 -25 -10 -61 -24 -80 -33 -19 -8 -48 -20 -65 -27 -52 -22 -169
-76 -185 -86 -8 -5 -22 -12 -30 -15 -8 -3 -22 -10 -30 -15 -8 -5 -22 -12 -30
-15 -8 -3 -22 -9 -30 -14 -8 -5 -37 -21 -65 -35 -27 -14 -63 -34 -80 -45 -16
-11 -39 -24 -50 -30 -11 -6 -33 -19 -50 -30 -16 -11 -37 -23 -45 -27 -27 -13
-233 -155 -315 -217 -203 -154 -489 -422 -645 -605 -30 -35 -62 -71 -71 -80
-8 -9 -38 -45 -64 -81 -27 -36 -53 -69 -57 -75 -47 -59 -228 -322 -228 -331 0
-2 -12 -20 -26 -41 -14 -21 -30 -47 -35 -58 -5 -11 -18 -33 -29 -50 -11 -16
-22 -37 -26 -45 -3 -8 -10 -22 -15 -30 -5 -8 -20 -37 -34 -65 -14 -27 -30 -57
-34 -65 -10 -17 -66 -137 -89 -190 -30 -69 -46 -106 -59 -137 -7 -18 -19 -48
-26 -65 -22 -52 -39 -101 -44 -128 -3 -14 -10 -31 -16 -38 -5 -7 -13 -29 -17
-50 -5 -20 -13 -52 -19 -69 -6 -18 -16 -48 -22 -65 -6 -18 -14 -51 -18 -73 -4
-22 -13 -50 -19 -62 -7 -12 -12 -35 -12 -51 0 -16 -7 -49 -15 -72 -8 -23 -15
-57 -15 -76 0 -18 -5 -45 -11 -61 -10 -27 -22 -118 -37 -283 -9 -102 -3 -320
9 -320 5 0 11 6 13 13 2 6 8 28 15 47 34 97 63 235 96 450 9 58 20 119 25 135
4 17 16 64 25 105 71 311 221 717 359 972 182 338 227 408 444 695 125 165
369 421 550 577 227 195 382 303 742 516 19 11 107 54 195 96 393 185 695 281
1170 369 110 20 216 41 235 45 19 5 78 19 130 30 103 23 200 57 200 71 0 5
-38 9 -84 9 -45 0 -110 2 -142 4 -32 2 -88 0 -124 -4z"/>
<path d="M4843 8953 c-62 -2 -113 -7 -113 -12 0 -5 15 -14 33 -21 17 -6 41
-16 51 -22 22 -11 204 -51 341 -73 50 -8 101 -17 115 -20 14 -3 61 -12 105
-21 546 -99 1124 -325 1565 -612 165 -107 213 -142 359 -262 214 -174 485
-444 606 -604 249 -325 315 -426 472 -715 169 -313 295 -651 379 -1016 9 -38
20 -83 25 -100 8 -30 26 -142 74 -475 14 -96 34 -215 45 -265 10 -49 22 -107
25 -127 3 -21 10 -38 15 -38 11 0 17 404 8 519 -15 189 -27 287 -37 314 -6 16
-11 43 -11 61 0 19 -7 53 -15 76 -8 23 -15 56 -15 72 0 16 -5 38 -11 49 -6 11
-14 41 -19 67 -4 26 -13 62 -19 80 -6 17 -16 47 -22 65 -6 17 -14 48 -18 67
-4 19 -12 44 -18 55 -13 26 -32 81 -43 124 -5 18 -13 38 -19 44 -6 6 -11 21
-11 33 0 12 -7 27 -15 34 -8 7 -15 21 -15 32 0 11 -6 32 -13 46 -8 15 -22 45
-32 67 -9 22 -21 47 -26 55 -5 8 -12 22 -15 30 -8 20 -73 151 -84 170 -5 8
-11 22 -14 30 -4 8 -15 29 -26 45 -11 17 -26 44 -34 60 -24 47 -58 105 -101
170 -22 33 -44 68 -50 77 -209 342 -647 810 -1020 1089 -96 72 -265 188 -295
202 -8 4 -28 16 -45 27 -16 11 -39 24 -50 30 -11 6 -33 19 -50 30 -16 11 -52
31 -80 45 -27 14 -58 30 -67 35 -46 25 -56 30 -98 50 -25 12 -52 26 -60 31 -8
5 -22 12 -30 15 -8 3 -31 13 -50 22 -19 8 -48 21 -65 27 -16 7 -46 19 -65 27
-19 9 -55 23 -80 33 -25 9 -60 23 -78 31 -18 8 -40 14 -50 14 -9 0 -26 7 -36
15 -11 8 -32 15 -46 15 -14 0 -31 5 -37 11 -6 6 -29 15 -50 19 -21 5 -51 13
-68 18 -88 30 -132 42 -153 42 -13 0 -33 5 -44 11 -11 6 -44 15 -72 20 -69 11
-149 27 -223 45 -34 8 -83 14 -110 14 -26 0 -64 4 -83 9 -47 12 -179 18 -317
14z"/>
<path d="M4170 7376 c-419 -31 -585 -54 -820 -112 -36 -9 -83 -20 -105 -24
-107 -22 -176 -40 -204 -54 -16 -9 -40 -16 -52 -16 -24 0 -272 -81 -334 -109
-22 -10 -51 -21 -65 -25 -14 -4 -45 -16 -70 -26 -25 -11 -93 -40 -152 -64
-165 -69 -329 -153 -398 -202 -51 -36 -98 -91 -125 -144 -9 -19 -25 -43 -34
-53 -15 -17 -14 -20 3 -33 10 -7 23 -15 28 -16 6 -2 14 -46 19 -98 10 -116 26
-215 39 -254 6 -16 10 -43 10 -60 1 -17 7 -42 15 -56 8 -14 14 -39 15 -56 0
-16 7 -39 15 -50 8 -10 15 -34 15 -51 0 -27 -4 -33 -21 -33 -12 0 -36 -7 -55
-16 -19 -9 -38 -14 -41 -10 -8 8 -20 135 -37 381 -7 110 -18 213 -25 228 -6
16 -11 39 -11 53 0 27 -15 32 -24 7 -4 -9 -9 -44 -12 -77 -3 -34 -10 -71 -16
-83 -8 -17 -8 -30 0 -48 15 -33 16 -142 1 -151 -9 -5 -10 -34 -4 -103 9 -114
8 -167 -5 -190 -4 -9 -35 -27 -67 -40 -32 -13 -65 -30 -74 -37 -8 -8 -21 -14
-27 -14 -25 0 -162 -71 -211 -110 -29 -23 -70 -69 -92 -102 -33 -51 -39 -69
-39 -112 1 -104 47 -254 104 -341 35 -52 88 -95 118 -95 25 0 108 61 108 80 0
10 7 23 15 30 8 7 15 21 15 31 0 34 29 131 50 164 19 30 161 125 188 125 5 0
34 11 63 25 59 26 139 43 139 28 0 -5 -15 -23 -33 -40 -82 -77 -165 -212 -174
-282 -13 -107 -14 -173 -4 -167 6 4 11 13 11 21 0 7 7 15 15 19 9 3 15 18 15
34 0 16 7 35 15 42 8 7 15 19 15 28 0 13 30 69 52 97 89 112 196 192 281 211
18 3 37 11 44 16 7 5 68 10 137 10 129 0 158 -6 266 -55 49 -23 200 -165 200
-189 0 -9 7 -21 15 -28 8 -7 15 -20 15 -30 0 -10 7 -23 15 -30 8 -7 15 -25 15
-41 0 -15 7 -32 16 -37 21 -12 15 -66 -9 -70 -9 -2 -20 4 -24 15 -4 10 -13 24
-20 31 -7 7 -13 24 -13 38 0 13 -3 24 -8 24 -4 0 -18 20 -31 44 -45 87 -182
189 -276 207 -22 4 -62 13 -89 20 -49 11 -78 9 -217 -20 -68 -15 -167 -70
-224 -126 -66 -65 -95 -102 -95 -119 0 -7 -7 -19 -15 -26 -8 -7 -15 -23 -15
-37 0 -13 -9 -37 -21 -52 -18 -25 -19 -32 -8 -52 14 -25 18 -217 22 -906 l2
-341 30 -43 c17 -24 53 -55 83 -72 50 -28 55 -29 114 -18 34 6 77 22 98 36 68
47 99 28 150 -93 36 -86 65 -139 90 -167 10 -11 23 -31 30 -45 23 -43 180
-251 283 -374 160 -189 506 -527 634 -618 52 -36 307 -232 321 -246 8 -7 28
-20 45 -29 18 -9 34 -19 37 -22 3 -4 39 -29 80 -55 41 -27 86 -56 100 -65 31
-22 215 -128 279 -161 26 -14 55 -33 65 -42 38 -38 161 -37 217 3 72 51 175
135 255 208 126 115 158 141 174 141 9 0 24 14 33 30 10 17 22 30 26 30 9 0
179 166 251 246 30 33 73 80 95 105 23 24 63 73 90 109 28 36 58 73 67 82 9 9
24 31 33 47 8 17 20 31 25 31 6 0 10 7 10 15 0 8 5 15 10 15 6 0 13 8 17 18 3
9 18 33 32 52 36 49 51 72 57 93 4 9 10 17 15 17 5 0 14 10 19 23 6 12 19 36
30 52 11 17 24 39 30 50 6 11 19 34 30 50 11 17 24 39 30 50 23 42 38 67 49
78 6 6 11 19 11 28 0 9 7 22 15 29 8 7 15 20 15 30 0 10 7 23 15 30 8 7 15 20
15 30 0 10 7 23 15 30 8 7 15 23 15 35 0 12 7 28 15 35 8 7 15 26 15 42 0 16
6 31 13 33 23 9 378 12 383 3 3 -4 -11 -28 -30 -52 -20 -23 -36 -48 -36 -55 0
-6 -5 -11 -10 -11 -6 0 -15 -10 -20 -22 -6 -13 -19 -36 -30 -53 -11 -16 -25
-40 -31 -52 -7 -13 -16 -23 -21 -23 -4 0 -8 -7 -8 -15 0 -8 -5 -15 -10 -15 -6
0 -13 -8 -17 -17 -8 -23 -63 -95 -80 -106 -7 -4 -13 -14 -13 -20 0 -7 -13 -27
-30 -45 -16 -18 -30 -37 -30 -43 0 -5 -4 -9 -8 -9 -5 0 -20 -15 -33 -34 -61
-85 -482 -519 -593 -611 -74 -61 -189 -155 -211 -174 -11 -9 -42 -34 -70 -56
-27 -22 -61 -52 -75 -66 -14 -14 -34 -28 -43 -32 -20 -8 -14 -27 8 -27 13 0
109 40 142 58 61 35 213 150 259 196 11 12 50 44 85 71 180 141 485 462 655
690 42 55 83 109 92 120 42 50 172 257 172 274 0 6 9 25 20 43 11 18 27 57 36
86 12 38 24 56 41 63 27 10 68 -3 98 -31 14 -14 42 -21 90 -26 68 -6 72 -5
120 27 67 46 88 87 81 164 -6 70 -32 195 -52 245 -8 19 -21 67 -29 106 -15 78
-10 114 23 161 50 72 65 170 63 397 -2 132 -5 154 -26 202 -42 96 -121 164
-230 200 -45 15 -334 11 -365 -5 -14 -7 -46 -34 -71 -58 -50 -48 -71 -51 -113
-14 -20 17 -46 63 -46 81 0 15 121 134 139 137 8 1 17 6 20 12 4 6 38 22 76
37 65 24 78 26 180 21 167 -9 207 -29 367 -186 104 -101 141 -122 105 -60 -9
17 -17 41 -17 54 0 12 -7 28 -15 35 -8 7 -15 19 -15 26 0 35 -118 146 -195
183 -99 47 -154 61 -245 61 -92 0 -146 -14 -248 -63 -75 -36 -192 -146 -192
-180 0 -8 -7 -20 -15 -27 -8 -7 -15 -20 -15 -30 0 -22 -25 -44 -40 -35 -16 10
-12 81 5 95 8 7 15 19 15 26 0 21 67 113 121 166 53 52 135 101 189 113 19 4
40 12 47 17 16 13 225 4 283 -12 46 -12 103 -35 130 -51 8 -5 22 -12 30 -16
26 -11 150 -141 150 -157 0 -9 4 -16 10 -16 5 0 12 -11 16 -25 3 -13 12 -29
20 -36 8 -6 14 -27 14 -46 0 -21 6 -36 15 -39 8 -4 15 -17 15 -29 0 -32 16
-40 24 -12 10 37 7 132 -5 144 -14 14 5 53 27 53 30 0 114 -53 156 -98 24 -26
54 -68 66 -94 15 -29 42 -61 76 -87 l53 -41 112 0 c90 0 119 4 149 19 43 22
87 67 96 98 14 44 -65 158 -159 230 -33 26 -62 50 -65 54 -7 9 -100 60 -270
147 -171 87 -182 99 -158 169 30 85 72 476 67 623 l-4 106 -44 67 c-33 49 -51
67 -67 67 -12 0 -27 7 -34 15 -7 8 -19 15 -26 15 -8 0 -31 9 -51 20 -21 11
-45 20 -55 20 -9 0 -19 4 -23 9 -3 5 -19 12 -36 16 -17 4 -42 13 -57 21 -15 8
-34 14 -43 14 -9 0 -30 7 -45 15 -16 8 -38 15 -49 15 -11 1 -31 7 -45 15 -14
8 -37 14 -51 15 -14 0 -34 7 -45 15 -10 8 -35 15 -54 15 -19 0 -46 7 -60 15
-14 8 -38 14 -55 15 -16 0 -43 7 -59 15 -15 8 -47 15 -70 15 -22 1 -52 7 -66
15 -14 8 -44 14 -68 15 -23 0 -59 7 -79 15 -19 8 -57 15 -83 15 -26 0 -69 7
-96 15 -27 8 -74 15 -104 15 -31 0 -80 6 -110 14 -30 7 -111 16 -180 20 -69 4
-145 11 -170 16 -25 5 -205 9 -400 9 -195 0 -375 -4 -400 -9 -25 -5 -101 -12
-170 -16 -69 -3 -147 -12 -174 -20 -27 -8 -75 -14 -105 -14 -31 0 -78 -7 -105
-15 -27 -8 -69 -15 -93 -15 -24 0 -60 -7 -80 -15 -19 -8 -53 -15 -75 -15 -21
0 -55 -7 -75 -15 -19 -8 -50 -15 -68 -15 -18 0 -49 -7 -68 -15 -20 -8 -51 -15
-69 -15 -18 -1 -44 -7 -58 -15 -14 -8 -38 -15 -55 -15 -16 0 -41 -7 -55 -15
-14 -8 -38 -15 -55 -15 -16 0 -41 -7 -55 -15 -14 -8 -38 -15 -55 -15 -16 0
-39 -7 -49 -15 -11 -8 -31 -15 -45 -15 -14 0 -35 -7 -45 -15 -11 -8 -32 -15
-46 -15 -14 0 -35 -7 -46 -15 -10 -8 -30 -15 -44 -15 -14 0 -34 -7 -44 -15
-11 -8 -29 -15 -41 -15 -12 0 -30 -7 -41 -15 -10 -8 -28 -15 -40 -15 -11 0
-29 -7 -40 -15 -10 -8 -28 -15 -39 -15 -11 0 -29 -7 -39 -15 -11 -8 -30 -15
-41 -15 -44 0 -55 -28 -55 -141 0 -97 10 -194 26 -247 5 -19 1 -25 -32 -39
-22 -9 -57 -19 -79 -24 -22 -4 -55 -12 -72 -18 -72 -24 -99 -33 -128 -41 -16
-5 -40 -12 -52 -15 -20 -6 -23 -4 -23 18 0 13 -7 44 -15 67 -8 23 -15 57 -15
75 0 18 -7 52 -15 75 -8 23 -15 64 -15 90 0 26 -7 69 -15 96 -8 27 -15 75 -15
106 0 32 -7 78 -16 103 -22 66 -16 103 21 122 17 9 37 20 45 25 8 4 22 11 30
14 8 3 22 10 30 15 8 5 22 12 30 15 8 3 22 10 30 15 8 5 22 12 30 15 8 3 22
10 30 15 8 5 22 12 30 15 8 3 22 10 30 15 8 5 22 12 30 15 37 13 144 60 183
80 16 8 37 14 47 14 9 0 23 7 30 15 7 8 22 15 34 15 12 0 31 7 42 15 10 8 28
15 40 15 11 0 29 7 40 15 10 8 31 15 45 15 14 0 34 7 45 15 10 8 30 15 44 15
14 0 34 6 45 14 11 7 34 16 50 18 28 5 42 10 125 38 19 7 55 15 80 19 25 4 55
13 67 19 12 7 35 12 51 12 16 0 46 7 65 15 20 8 53 15 74 15 21 1 49 7 63 15
14 8 46 14 71 15 26 0 66 7 89 15 23 8 68 15 99 15 31 0 74 5 96 11 22 5 103
14 180 19 77 5 181 14 230 20 116 13 345 12 460 -1 50 -5 146 -14 215 -19 69
-4 141 -13 160 -19 19 -6 60 -11 91 -11 31 0 76 -7 99 -15 23 -8 62 -15 85
-15 23 0 59 -7 78 -15 20 -8 53 -15 74 -15 21 -1 49 -7 63 -15 14 -8 43 -15
65 -15 22 0 51 -7 65 -15 14 -8 39 -14 56 -15 18 0 45 -7 60 -15 16 -8 40 -15
54 -15 14 -1 36 -7 50 -15 14 -8 36 -15 50 -15 14 0 34 -7 44 -15 11 -8 31
-15 45 -15 14 0 35 -7 45 -15 11 -8 31 -15 45 -15 14 0 35 -7 45 -15 11 -8 29
-15 40 -15 12 0 30 -7 40 -15 11 -8 28 -15 37 -15 10 0 30 -6 46 -14 15 -8 44
-21 63 -29 54 -23 101 -43 142 -61 21 -9 55 -24 75 -33 21 -9 45 -20 53 -24 8
-4 58 -30 110 -57 128 -66 162 -85 176 -97 6 -6 30 -19 53 -29 22 -11 41 -23
41 -28 0 -4 8 -8 19 -8 10 0 24 -7 31 -15 16 -19 40 -19 40 0 0 20 -116 136
-155 155 -16 8 -61 36 -100 61 -38 26 -86 54 -105 63 -19 9 -82 41 -139 71
-58 30 -111 55 -118 55 -8 0 -48 18 -89 40 -42 22 -82 40 -90 40 -8 0 -22 4
-32 9 -33 17 -128 53 -192 73 -36 11 -94 31 -130 45 -110 41 -372 108 -540
138 -47 9 -98 20 -115 25 -75 22 -366 59 -560 70 -286 17 -431 18 -605 6z
m1275 -617 c28 -5 97 -14 155 -18 58 -5 118 -14 133 -20 16 -6 50 -11 76 -11
26 0 70 -7 97 -15 27 -8 67 -15 89 -15 22 -1 58 -7 80 -15 22 -8 56 -15 75
-15 19 0 46 -7 60 -15 14 -8 41 -15 60 -15 19 0 46 -7 60 -15 14 -8 39 -15 55
-15 17 0 41 -7 55 -15 14 -8 39 -14 56 -15 16 0 39 -7 50 -15 10 -8 33 -15 50
-15 16 0 39 -7 50 -15 10 -8 31 -15 45 -15 14 0 34 -7 45 -15 10 -8 28 -15 40
-15 11 0 29 -7 40 -15 10 -8 28 -15 40 -15 11 0 29 -7 40 -15 10 -8 29 -15 40
-15 12 0 27 -7 34 -15 7 -8 25 -15 40 -15 15 0 33 -7 40 -15 7 -8 22 -15 34
-15 47 0 50 -11 47 -142 -1 -68 -9 -157 -17 -198 -8 -41 -14 -110 -14 -152 0
-42 -5 -89 -12 -105 -7 -15 -15 -71 -18 -123 l-5 -95 -34 3 c-18 1 -43 9 -54
17 -12 8 -33 15 -47 15 -14 0 -34 7 -44 15 -11 8 -33 15 -49 15 -15 0 -38 5
-50 12 -12 6 -44 15 -72 19 -27 4 -63 12 -78 18 -27 10 -28 13 -22 58 4 27 13
77 21 113 10 41 14 101 12 163 -3 93 -4 99 -28 111 -79 40 -93 46 -105 46 -7
0 -26 6 -42 14 -15 8 -48 22 -73 31 -25 9 -58 23 -73 31 -16 8 -39 14 -52 14
-12 0 -28 7 -35 15 -7 8 -25 15 -39 15 -15 0 -36 7 -47 15 -10 8 -30 15 -44
15 -14 0 -34 6 -45 14 -11 7 -33 16 -50 18 -16 3 -45 11 -62 17 -18 6 -48 16
-65 22 -18 6 -51 14 -73 18 -22 4 -50 13 -62 19 -12 7 -34 12 -50 12 -15 1
-39 7 -53 15 -14 8 -41 15 -60 15 -19 0 -46 7 -60 15 -14 8 -41 15 -60 15 -19
0 -46 7 -60 15 -14 8 -41 14 -61 15 -20 0 -53 7 -72 15 -20 8 -54 15 -75 15
-22 0 -56 7 -75 15 -20 8 -56 15 -79 15 -24 0 -65 7 -92 15 -27 8 -70 15 -95
15 -25 0 -62 5 -81 11 -19 5 -87 14 -150 19 -63 5 -149 14 -190 21 -72 11
-597 5 -609 -7 -14 -14 29 -28 196 -65 55 -11 189 -25 388 -39 181 -13 496
-54 615 -80 25 -5 74 -14 110 -20 87 -13 139 -25 235 -50 44 -12 94 -22 110
-24 17 -2 50 -10 75 -19 25 -9 53 -17 63 -17 9 0 56 -13 104 -30 47 -16 97
-30 110 -30 13 0 31 -4 41 -10 9 -5 51 -19 92 -31 41 -12 102 -32 135 -45 33
-12 83 -28 110 -35 28 -6 67 -20 87 -30 21 -11 42 -19 49 -19 27 0 148 -54
153 -69 4 -9 13 -27 21 -41 17 -29 20 -147 5 -202 -6 -20 -19 -46 -28 -59 -18
-21 -19 -22 -148 -9 -71 6 -142 14 -159 15 -44 6 -259 13 -420 16 -167 2 -197
10 -382 103 -73 36 -134 66 -137 66 -3 0 -33 13 -68 29 -110 51 -160 72 -265
107 -57 19 -136 50 -176 69 -41 19 -82 35 -92 35 -10 0 -48 8 -84 19 -233 65
-552 82 -971 53 -165 -12 -485 -55 -600 -82 -47 -11 -116 -24 -155 -30 -38 -6
-107 -20 -153 -32 -62 -15 -89 -18 -106 -10 -32 14 -46 73 -39 159 5 59 9 74
24 78 11 4 19 10 19 15 0 9 104 60 122 60 6 0 30 9 52 20 23 10 67 26 99 34
32 9 72 22 89 31 17 8 38 15 47 15 9 0 50 11 91 24 199 66 406 121 535 143
108 18 139 19 171 8 16 -5 22 -2 27 14 4 17 13 21 51 21 25 0 55 4 68 10 23
10 144 24 343 41 61 5 128 13 150 18 55 12 947 12 1010 0z m-1260 -634 c50 -8
110 -15 135 -15 25 0 67 -7 94 -15 27 -8 64 -15 81 -15 18 0 49 -7 68 -15 20
-8 56 -15 81 -15 49 0 65 -12 46 -35 -10 -12 -8 -15 11 -15 13 -1 42 -8 64
-16 22 -9 54 -19 70 -24 37 -10 90 -29 132 -47 17 -7 36 -13 41 -13 6 0 23 -6
39 -14 15 -8 44 -21 63 -29 19 -8 51 -22 70 -30 19 -9 62 -28 95 -42 33 -15
104 -49 159 -76 l98 -49 157 0 c86 0 199 -4 251 -10 52 -6 158 -15 235 -20
207 -15 402 -45 488 -76 20 -8 50 -14 66 -14 16 0 42 -7 57 -15 16 -8 39 -15
50 -15 12 0 35 -7 50 -15 16 -8 36 -15 45 -15 9 0 30 -7 45 -15 16 -8 39 -15
51 -15 12 0 24 -4 27 -9 3 -5 18 -12 33 -15 32 -8 53 -17 178 -79 121 -60 159
-80 166 -90 6 -9 39 -29 69 -43 25 -12 131 -95 186 -147 54 -50 71 -82 51 -94
-12 -8 -328 -5 -336 3 -2 2 3 12 12 22 32 36 21 66 -50 141 -66 67 -193 161
-220 161 -7 0 -13 5 -13 10 0 6 -5 10 -11 10 -7 0 -33 10 -58 21 -25 12 -59
27 -76 34 -16 7 -47 20 -68 29 -21 9 -45 16 -55 16 -9 0 -26 7 -36 15 -11 8
-34 15 -50 15 -17 1 -42 7 -56 15 -14 8 -39 14 -56 15 -17 0 -51 7 -74 15 -23
8 -68 15 -100 15 -31 0 -70 4 -86 10 -16 5 -105 14 -199 20 -93 6 -215 15
-270 20 -55 4 -182 8 -281 9 -100 1 -206 6 -235 12 -68 13 -460 12 -473 -1
-12 -12 -156 -14 -156 -2 -1 4 -10 18 -21 31 -17 21 -22 23 -43 12 -46 -25
-691 -11 -817 18 -24 5 -109 12 -189 15 -80 3 -161 10 -180 16 -19 5 -78 10
-130 11 -52 0 -117 5 -145 10 -27 5 -118 14 -200 19 -93 6 -164 15 -187 24
-46 20 -98 21 -98 3 0 -15 103 -77 128 -77 10 -1 28 -7 42 -15 14 -8 53 -15
90 -15 36 0 106 -7 155 -15 50 -8 133 -15 185 -15 52 0 167 -7 255 -15 88 -8
234 -15 325 -15 91 0 204 -5 250 -11 80 -10 205 -15 850 -38 291 -10 368 -17
408 -33 16 -7 118 -12 247 -14 121 -2 242 -8 270 -13 27 -5 61 -9 75 -8 39 3
36 -31 -9 -88 -57 -72 -99 -156 -98 -196 1 -43 -35 -96 -100 -148 -59 -47 -95
-88 -113 -130 -16 -39 -26 -36 -68 19 -40 52 -38 71 7 83 19 4 30 12 25 17
-19 17 -183 22 -859 25 -385 2 -814 7 -954 10 -242 7 -254 8 -271 29 -97 115
-169 197 -201 228 -56 54 -52 65 27 73 l65 7 51 -56 c66 -75 155 -141 198
-149 19 -4 55 -11 80 -16 25 -6 121 -10 214 -11 93 0 197 -5 230 -10 112 -19
1339 -49 1376 -34 22 9 -9 19 -84 29 -32 3 -75 13 -96 20 -20 7 -81 13 -136
13 -54 0 -133 7 -174 16 -70 14 -339 33 -495 36 -38 0 -131 5 -205 10 -74 6
-184 10 -245 10 -240 0 -451 38 -443 79 6 29 14 30 958 46 162 3 306 10 320
15 14 5 72 11 130 14 136 7 269 21 277 30 3 3 3 9 -1 14 -4 4 -492 7 -1084 7
-1211 0 -1195 1 -1239 -65 -27 -39 -31 -120 -8 -160 18 -32 20 -157 3 -163
-27 -9 -38 6 -38 52 0 25 -7 55 -15 65 -8 11 -15 31 -15 45 0 32 -23 98 -38
113 -7 7 -12 16 -12 21 0 5 -21 36 -46 69 -43 55 -153 148 -176 148 -5 0 -16
7 -24 15 -9 8 -26 15 -38 15 -13 0 -29 7 -36 15 -7 8 -25 15 -40 15 -15 0 -47
7 -70 15 -57 20 -275 20 -350 0 -30 -8 -72 -15 -93 -15 -21 0 -54 -7 -74 -15
-19 -8 -47 -15 -62 -15 -14 -1 -37 -7 -51 -15 -14 -8 -37 -14 -51 -15 -15 0
-32 -7 -39 -15 -7 -8 -21 -15 -32 -15 -18 0 -49 -14 -98 -41 -8 -5 -19 -11
-25 -13 -5 -2 -17 -7 -25 -10 -8 -3 -28 -15 -45 -26 -16 -11 -39 -24 -50 -29
-11 -5 -39 -25 -61 -45 -47 -40 -51 -57 -62 -241 -6 -88 -10 -110 -22 -110
-16 0 -60 78 -60 107 0 9 -4 20 -10 23 -5 3 -10 16 -10 28 0 12 -7 35 -15 51
-8 15 -15 40 -15 55 -1 14 -7 37 -15 51 -26 45 -19 107 16 152 18 22 41 44 53
49 12 5 35 18 51 29 17 11 37 22 45 26 8 3 42 19 75 35 33 16 66 29 73 29 8 0
26 6 40 14 41 20 97 39 202 67 25 7 59 18 77 25 17 8 39 14 48 14 9 0 26 5 38
12 12 6 40 15 62 20 58 11 148 33 165 41 8 4 35 11 60 16 66 15 146 38 169 50
11 6 35 11 53 11 18 1 44 7 58 15 14 8 40 14 58 15 18 0 49 7 69 15 19 8 49
15 65 15 16 0 45 7 65 15 19 8 50 15 68 15 18 0 52 7 75 15 23 8 61 15 85 15
23 0 64 7 91 15 27 8 69 15 94 15 25 0 76 7 115 15 38 8 101 15 140 16 38 0
108 6 155 13 120 19 385 19 495 1z m-873 -847 c9 -7 29 -31 45 -54 15 -22 49
-69 76 -103 26 -35 47 -67 47 -73 0 -11 -233 0 -267 13 -19 7 -23 16 -23 48 0
22 4 43 10 46 5 3 7 19 3 35 -4 23 1 38 21 65 28 37 60 45 88 23z m-747 -68
c69 -32 146 -95 238 -195 l78 -85 -3 -175 c-3 -171 -4 -175 -28 -199 -24 -24
-32 -25 -163 -28 l-137 -3 0 26 c0 14 22 91 50 170 27 79 50 158 50 174 0 39
-48 98 -103 127 -66 34 -140 31 -203 -10 -61 -39 -93 -40 -133 -6 -29 24 -79
43 -129 49 -33 3 -36 11 -22 44 19 46 135 114 225 132 22 4 83 6 135 5 74 -2
106 -8 145 -26z m460 -120 c0 -36 -29 -33 -33 3 -3 23 0 28 15 25 12 -2 18
-12 18 -28z m-847 -156 c4 -5 5 -101 1 -214 -3 -113 -4 -211 -2 -217 7 -17 33
-16 33 1 0 16 30 109 60 186 12 30 24 64 27 75 4 11 12 29 20 40 7 11 13 29
13 42 0 12 4 24 9 28 5 3 12 18 16 34 l6 28 102 6 c57 3 106 2 111 -4 6 -5 2
-20 -12 -39 -12 -16 -22 -34 -22 -39 0 -5 -8 -24 -17 -43 -9 -18 -22 -45 -30
-60 -7 -14 -13 -33 -13 -41 0 -9 -7 -29 -15 -46 -8 -17 -22 -45 -30 -62 -8
-17 -15 -37 -15 -44 0 -14 -20 -66 -46 -118 -8 -16 -14 -37 -14 -47 0 -9 -7
-23 -15 -30 -8 -7 -15 -25 -15 -41 0 -15 7 -34 15 -43 8 -8 15 -23 15 -33 0
-11 7 -28 15 -39 8 -10 15 -28 15 -39 0 -11 7 -33 15 -49 8 -15 15 -36 15 -45
0 -9 7 -29 15 -45 8 -15 15 -38 15 -50 0 -12 7 -31 15 -42 8 -10 15 -31 15
-45 0 -14 7 -34 15 -45 8 -10 15 -28 15 -39 0 -11 6 -29 14 -40 7 -11 16 -37
20 -57 4 -21 11 -38 16 -38 6 0 10 -13 10 -28 l0 -29 -101 0 c-99 0 -101 0
-111 26 -6 14 -14 35 -18 46 -5 11 -11 31 -13 45 -6 32 -26 88 -43 123 -8 16
-14 41 -14 55 0 15 -7 36 -15 46 -8 11 -15 34 -15 50 -1 32 -29 76 -50 76 -8
0 -11 -59 -10 -217 1 -120 1 -226 1 -236 -1 -16 -11 -17 -98 -15 l-98 3 0 110
c-1 130 -1 493 0 905 0 162 3 297 7 300 11 9 178 4 186 -6z m1286 -22 c26 -18
50 -47 67 -82 28 -55 28 -57 29 -256 0 -181 -2 -206 -20 -245 -26 -57 -37 -70
-82 -98 -39 -23 -46 -35 -28 -46 6 -3 10 -21 10 -38 1 -18 7 -43 15 -57 8 -14
15 -41 15 -60 0 -19 7 -46 15 -60 8 -14 14 -40 15 -58 0 -18 7 -49 15 -69 8
-19 15 -47 15 -62 0 -14 6 -38 14 -53 19 -36 28 -80 18 -95 -5 -8 -37 -11 -96
-10 l-89 2 -13 35 c-7 19 -13 46 -13 60 -1 14 -7 45 -15 70 -18 58 -35 125
-45 175 -4 22 -13 50 -19 62 -7 12 -12 37 -12 56 0 55 -27 109 -52 105 -20 -3
-20 -7 -19 -238 1 -129 4 -250 7 -268 10 -52 -4 -60 -109 -57 l-92 2 -5 654
c-3 360 -2 656 2 659 3 3 102 4 219 2 212 -3 213 -4 253 -30z m373 25 c11 -11
9 -1298 -2 -1306 -5 -5 -48 -8 -95 -7 l-85 1 -5 650 c-4 465 -2 653 6 660 11
10 171 12 181 2z m290 0 c12 -12 33 -81 33 -109 0 -15 5 -39 12 -55 6 -15 14
-50 18 -78 4 -27 12 -63 18 -80 16 -47 33 -115 43 -179 5 -33 13 -64 18 -70 5
-6 11 -36 13 -66 4 -55 32 -115 49 -104 5 3 9 29 9 58 0 30 7 70 15 89 8 20
15 52 15 70 0 19 7 51 15 70 8 20 15 49 15 65 0 16 7 46 15 65 8 20 15 50 15
67 0 17 5 41 11 52 6 11 15 44 20 72 16 97 22 121 29 131 5 6 48 10 97 10 l88
-1 0 -659 0 -660 -90 0 -90 0 0 235 c0 129 -2 241 -3 248 -1 6 -9 12 -17 12
-11 0 -15 -12 -15 -47 -1 -27 -7 -66 -15 -88 -8 -22 -15 -53 -15 -68 0 -16 -5
-38 -11 -49 -6 -11 -15 -44 -19 -72 -5 -28 -15 -78 -22 -111 l-13 -60 -39 -3
c-49 -4 -75 24 -76 81 0 21 -7 54 -15 74 -8 19 -15 50 -15 67 -1 17 -7 42 -15
56 -8 14 -14 39 -15 56 0 17 -7 48 -15 67 -8 20 -15 57 -15 82 0 44 -11 58
-27 33 -4 -7 -8 -125 -8 -263 l0 -250 -87 -1 c-60 -1 -88 2 -89 10 -5 63 -2
1307 3 1308 17 6 168 1 175 -5z m864 3 c24 -13 25 -55 3 -99 -14 -28 -16 -95
-16 -554 l-1 -522 36 -60 c42 -70 96 -125 152 -153 61 -31 200 -38 303 -16 45
9 85 15 88 12 6 -6 -29 -63 -65 -108 -11 -14 -21 -28 -21 -32 0 -7 -39 -51
-91 -103 -16 -17 -39 -44 -49 -60 -29 -44 -319 -334 -450 -450 -153 -135 -354
-295 -413 -329 -65 -37 -77 -34 -222 59 -230 148 -384 257 -461 324 -66 59
-146 126 -199 169 -83 65 -375 375 -375 397 0 5 -7 16 -16 26 -18 20 -34 82
-25 97 3 5 29 24 58 41 43 27 56 30 73 21 11 -6 20 -14 20 -18 0 -15 77 -42
126 -44 27 -1 75 4 108 12 52 12 63 11 107 -4 51 -19 95 -18 181 4 45 11 69 9
171 -16 19 -4 56 3 113 22 l85 28 42 -20 c52 -25 93 -25 139 0 34 18 35 18 92
-3 81 -30 159 -28 207 5 21 14 49 42 63 62 l25 37 3 622 c2 492 6 625 16 635
11 11 69 21 150 27 13 0 32 -4 43 -9z m526 -17 c37 -24 83 -74 83 -93 0 -8 7
-28 15 -44 10 -19 15 -58 15 -116 l0 -88 -82 -4 c-120 -5 -121 -4 -115 50 6
53 -8 98 -33 112 -43 23 -120 1 -138 -39 -16 -39 -11 -818 7 -849 11 -21 18
-23 79 -20 l67 3 5 85 5 85 93 3 c79 2 93 0 99 -14 10 -26 -17 -225 -35 -254
-65 -106 -207 -145 -362 -99 -65 20 -120 81 -142 157 -16 54 -18 112 -18 497
0 379 2 443 17 488 21 67 46 102 93 132 45 29 84 34 217 30 76 -3 109 -8 130
-22z m559 16 c6 -5 11 -33 12 -62 1 -30 6 -66 12 -81 5 -15 10 -53 10 -85 0
-32 7 -80 15 -107 8 -27 15 -70 15 -96 0 -26 6 -67 14 -90 8 -24 17 -81 20
-127 4 -46 11 -92 16 -102 6 -10 10 -48 10 -86 0 -37 7 -95 15 -128 8 -33 14
-86 15 -119 0 -32 7 -85 16 -118 8 -33 14 -72 12 -86 -3 -25 -4 -25 -88 -25
-82 0 -85 1 -98 27 -7 14 -16 67 -19 116 l-6 90 -88 0 c-89 0 -89 0 -94 -27
-4 -16 -10 -47 -16 -70 -5 -23 -9 -60 -9 -83 0 -24 -5 -42 -12 -44 -7 -3 -53
-7 -101 -10 -99 -6 -114 3 -83 54 9 16 16 43 16 62 0 18 7 58 15 88 8 30 15
81 15 112 0 31 5 69 11 85 6 15 14 64 19 108 10 88 33 218 49 280 6 22 11 60
11 86 0 25 5 50 11 56 5 5 14 46 18 90 5 44 12 86 16 93 4 6 11 52 15 102 4
53 12 93 19 98 17 10 203 9 217 -1z m674 -24 c47 -30 76 -66 85 -104 3 -17 11
-33 16 -36 5 -4 9 -96 9 -210 0 -114 -4 -206 -9 -210 -5 -3 -12 -18 -16 -34
-3 -17 -26 -49 -51 -73 -48 -46 -57 -86 -29 -124 8 -10 15 -34 15 -52 0 -18 7
-49 15 -69 8 -19 15 -51 15 -70 0 -18 7 -50 15 -70 8 -19 15 -49 15 -65 0 -16
7 -43 16 -59 8 -17 16 -49 17 -72 l2 -42 -91 -2 -90 -1 -17 54 c-9 30 -17 67
-17 82 -1 15 -7 38 -15 52 -8 14 -15 41 -15 60 0 19 -7 46 -15 60 -8 14 -15
41 -15 60 0 19 -7 46 -15 60 -8 14 -14 41 -15 60 0 40 -23 80 -46 80 -13 0
-15 -36 -14 -272 1 -150 1 -278 1 -284 -1 -14 -171 -10 -180 4 -3 6 -7 271 -9
589 -1 318 -5 607 -8 642 -5 43 -3 66 5 70 6 4 100 5 208 3 184 -4 200 -6 233
-27z m-2396 -23 c16 -31 11 -75 -10 -93 -8 -6 -14 -22 -14 -35 0 -37 -28 -29
-45 12 -15 37 -21 125 -8 137 3 4 19 7 34 7 21 0 32 -7 43 -28z m1066 -377
c24 -22 130 -30 185 -15 40 11 48 11 62 -2 13 -14 13 -29 -2 -144 -17 -134
-36 -204 -62 -229 -8 -8 -33 -15 -56 -15 -58 -1 -113 -15 -132 -34 -19 -19
-21 -19 -45 -6 -16 9 -18 27 -19 215 -1 130 2 212 9 225 13 24 37 26 60 5z
m-2502 -97 c13 -13 17 -198 5 -199 -15 -1 -348 -1 -359 0 -13 1 -13 179 0 199
10 17 337 17 354 0z m-338 -289 c19 -6 80 -12 135 -14 62 -1 112 -7 130 -16
l30 -14 2 -195 c1 -107 -1 -201 -6 -208 -20 -33 -163 -31 -201 3 -10 9 -25 42
-35 73 -10 31 -20 62 -24 67 -3 6 -11 28 -17 50 -6 22 -23 72 -37 112 -15 39
-29 89 -33 112 -7 46 -3 49 56 30z m3390 -519 c0 -5 -7 -10 -15 -10 -8 0 -15
5 -15 10 0 6 7 10 15 10 8 0 15 -4 15 -10z m-2998 -72 c8 -7 37 -42 64 -78 26
-36 58 -76 70 -90 12 -14 55 -63 94 -109 108 -127 275 -290 415 -406 26 -22
53 -45 59 -50 33 -32 226 -175 235 -175 6 0 11 -4 11 -9 0 -4 44 -37 98 -72
124 -82 133 -87 155 -95 9 -3 17 -10 17 -14 0 -5 10 -12 23 -16 12 -3 29 -13
38 -20 17 -15 90 -58 127 -74 12 -5 22 -14 22 -20 0 -16 27 -12 34 5 3 8 11
15 18 15 7 0 31 16 53 36 22 20 58 47 80 61 22 14 45 30 50 37 6 6 39 34 75
60 36 27 70 54 75 60 6 6 33 29 60 51 174 138 521 482 665 659 30 37 66 80 80
96 14 16 43 53 65 84 l40 56 61 0 c34 0 89 3 123 6 61 7 61 7 61 -19 0 -14 -5
-29 -11 -33 -6 -3 -18 -21 -26 -38 -8 -17 -29 -58 -48 -91 -19 -33 -46 -82
-60 -110 -14 -27 -35 -63 -45 -80 -11 -16 -24 -39 -30 -50 -14 -28 -33 -57
-47 -73 -7 -7 -13 -18 -13 -23 0 -6 -20 -37 -45 -69 -25 -32 -45 -63 -45 -69
0 -6 -5 -11 -10 -11 -6 0 -14 -8 -17 -17 -5 -14 -69 -102 -165 -228 -4 -5 -65
-77 -135 -160 -161 -188 -357 -391 -493 -508 -58 -50 -121 -105 -140 -123 -19
-17 -48 -42 -63 -55 -16 -13 -44 -39 -64 -56 -40 -37 -46 -38 -65 -20 -18 16
-69 52 -88 60 -8 4 -28 16 -45 27 -16 11 -39 24 -50 30 -11 6 -33 19 -50 30
-16 11 -39 24 -50 30 -11 6 -33 19 -50 30 -16 11 -36 23 -44 26 -13 7 -179
118 -275 185 -27 19 -58 42 -67 51 -10 9 -32 24 -48 33 -17 8 -31 20 -31 25 0
6 -7 10 -15 10 -8 0 -15 4 -15 8 0 5 -28 29 -62 54 -35 26 -79 61 -98 78 -19
18 -55 48 -80 69 -122 99 -390 368 -482 481 -20 25 -54 65 -77 90 -22 25 -41
48 -41 52 0 4 -6 13 -13 20 -24 24 -107 136 -107 144 0 4 -7 14 -15 23 -21 22
-105 140 -105 147 0 3 -18 29 -40 56 -22 28 -40 57 -40 64 0 11 45 14 228 17
125 1 243 3 263 5 19 1 42 -4 51 -10z"/>
<path d="M3685 6009 c-27 -5 -102 -13 -165 -18 -63 -5 -128 -14 -143 -20 -16
-6 -56 -11 -90 -12 -34 -1 -73 -4 -87 -8 -32 -9 -37 -41 -10 -66 11 -10 20
-26 20 -35 0 -10 7 -23 15 -30 8 -7 15 -21 15 -32 0 -11 10 -28 23 -39 19 -16
40 -18 167 -19 80 0 163 -5 185 -12 22 -6 119 -14 215 -17 96 -4 184 -12 195
-18 11 -6 99 -13 200 -15 138 -4 189 -9 217 -21 40 -18 95 -22 116 -8 9 5 2
10 -23 14 -54 9 -74 40 -75 116 0 76 13 90 80 91 51 0 151 -19 225 -44 115
-38 145 -63 145 -122 0 -24 4 -45 8 -48 5 -3 83 -7 175 -10 144 -5 167 -4 167
9 0 8 -8 15 -17 15 -16 0 -117 44 -163 71 -8 5 -22 12 -30 15 -8 3 -22 10 -30
15 -8 5 -22 12 -30 15 -27 10 -85 36 -100 45 -8 5 -22 12 -30 15 -8 3 -28 11
-45 18 -47 20 -97 37 -140 47 -22 6 -44 14 -50 20 -5 5 -22 9 -37 9 -16 0 -45
7 -65 15 -19 8 -50 15 -67 15 -17 0 -49 7 -71 15 -22 8 -62 14 -90 15 -27 0
-75 7 -105 15 -62 17 -415 19 -505 4z m485 -113 c120 -10 152 -19 173 -48 16
-22 18 -30 8 -42 -7 -8 -10 -20 -6 -26 13 -20 -16 -39 -71 -46 -34 -4 -105 0
-182 10 -115 14 -332 33 -592 52 -91 6 -130 16 -130 32 0 11 100 42 130 41 14
0 45 4 70 10 111 28 385 35 600 17z"/>
<path d="M3021 5915 c-18 -8 -49 -15 -67 -15 -19 0 -51 -7 -71 -15 -19 -8 -51
-15 -70 -15 -19 0 -46 -9 -63 -21 -28 -21 -28 -23 -12 -45 15 -21 25 -23 93
-24 42 0 89 -4 105 -9 16 -6 80 -11 142 -13 120 -4 131 1 97 46 -8 11 -15 30
-15 43 0 13 -4 23 -9 23 -5 0 -11 12 -13 28 -3 24 -7 27 -43 29 -22 2 -55 -4
-74 -12z"/>
<path d="M4690 5760 c20 -13 60 -13 60 0 0 6 -17 10 -37 10 -28 0 -34 -3 -23
-10z"/>
<path d="M2141 4241 l-25 -19 21 -46 20 -47 16 24 c13 20 28 26 77 32 51 6 60
10 60 27 0 15 -4 18 -12 11 -17 -12 -28 -11 -58 9 -41 26 -73 29 -99 9z"/>
<path d="M3198 4749 c-8 -5 -11 -56 -9 -170 1 -90 5 -167 7 -171 3 -4 34 -8
69 -8 53 0 68 4 85 22 24 26 22 15 24 155 2 102 0 115 -20 140 -18 22 -32 28
-83 33 -34 3 -67 3 -73 -1z"/>
<path d="M3134 4246 c-24 -17 -64 -23 -81 -13 -9 6 -13 2 -13 -10 0 -14 12
-22 40 -30 37 -9 42 -8 63 13 12 13 32 24 45 24 25 0 30 15 6 24 -24 9 -38 7
-60 -8z"/>
<path d="M3226 4239 c3 -5 14 -9 24 -9 11 0 24 -9 30 -20 8 -16 15 -18 35 -10
16 6 27 6 31 -1 9 -16 23 9 17 31 -4 14 -16 17 -73 17 -38 0 -67 -4 -64 -8z"/>
<path d="M4062 4265 c-6 -14 -16 -25 -22 -25 -20 0 -9 -27 19 -48 34 -25 39
-18 33 51 -5 53 -13 59 -30 22z"/>
<path d="M4147 4283 c-11 -17 35 -91 53 -85 15 5 30 21 30 34 0 3 -14 9 -31
13 -18 4 -34 16 -38 28 -5 12 -10 16 -14 10z"/>
<path d="M4447 4269 c-12 -13 -24 -18 -37 -14 -16 5 -21 -1 -30 -34 -6 -23
-15 -41 -20 -41 -12 0 -13 -40 -1 -59 7 -11 10 -9 15 7 7 21 33 35 57 30 9 -2
15 8 17 24 2 14 10 32 18 38 15 13 20 70 6 70 -4 0 -15 -9 -25 -21z"/>
<path d="M4530 4225 c0 -59 14 -72 31 -28 7 19 6 35 -2 55 -18 44 -29 33 -29
-27z"/>
<path d="M4001 4220 c0 -33 1 -34 11 -12 8 17 8 26 0 34 -9 9 -12 4 -11 -22z"/>
<path d="M4240 4168 c0 -49 16 -68 22 -27 6 37 1 59 -13 59 -5 0 -9 -15 -9
-32z"/>
<path d="M5940 4381 c-5 -11 -10 -56 -10 -100 0 -50 -6 -96 -16 -120 -8 -22
-14 -50 -12 -63 3 -20 9 -23 56 -25 64 -3 72 9 48 76 -10 29 -16 77 -16 133 0
47 -3 93 -6 102 -8 22 -31 20 -44 -3z"/>
<path d="M6505 4728 c-3 -8 -4 -83 -3 -168 l3 -155 62 -3 c53 -3 64 0 82 19
19 21 21 35 21 148 -1 157 -4 163 -95 169 -49 3 -66 1 -70 -10z"/>
<path d="M6482 4259 c-13 -5 -43 -10 -68 -11 -34 -2 -44 -7 -44 -20 0 -14 6
-16 30 -11 23 4 30 2 30 -10 0 -28 20 -29 30 -3 8 23 15 26 56 26 30 0 51 -5
58 -15 6 -8 25 -17 42 -21 25 -5 33 -1 47 20 16 24 16 26 -3 36 -14 8 -25 7
-39 -2 -15 -9 -25 -9 -43 -1 -36 18 -71 22 -96 12z"/>
<path d="M2614 3443 c7 -7 108 -5 115 3 2 2 -24 4 -59 4 -35 0 -60 -3 -56 -7z"/>
<path d="M3460 2835 c0 -14 39 -38 48 -30 4 4 -36 45 -43 45 -3 0 -5 -7 -5
-15z"/>
<path d="M3520 2793 c0 -11 82 -84 88 -79 3 3 -13 24 -35 46 -39 39 -53 47
-53 33z"/>
<path d="M3625 2690 c3 -5 13 -10 21 -10 8 0 14 5 14 10 0 6 -9 10 -21 10 -11
0 -17 -4 -14 -10z"/>
<path d="M3676 2672 c-3 -6 -1 -14 5 -17 15 -10 25 3 12 16 -7 7 -13 7 -17 1z"/>
<path d="M3707 2644 c-8 -8 1 -24 14 -24 5 0 9 7 9 15 0 15 -12 20 -23 9z"/>
<path d="M3792 2579 c2 -7 10 -15 17 -17 8 -3 12 1 9 9 -2 7 -10 15 -17 17 -8
3 -12 -1 -9 -9z"/>
<path d="M3870 2510 c0 -5 9 -10 19 -10 10 0 22 -7 25 -16 3 -8 10 -12 16 -9
15 9 12 25 -5 25 -8 0 -15 5 -15 10 0 6 -9 10 -20 10 -11 0 -20 -4 -20 -10z"/>
<path d="M4005 2430 c-3 -6 1 -13 10 -16 19 -8 30 0 20 15 -8 14 -22 14 -30 1z"/>
<path d="M4095 2370 c-3 -6 1 -13 10 -16 19 -8 30 0 20 15 -8 14 -22 14 -30 1z"/>
<path d="M4156 2342 c-3 -6 -1 -14 5 -17 15 -10 25 3 12 16 -7 7 -13 7 -17 1z"/>
<path d="M4196 2311 c-3 -5 3 -11 14 -14 21 -5 32 1 24 14 -7 12 -31 11 -38 0z"/>
<path d="M4245 2280 c-6 -10 27 -34 63 -45 16 -5 22 -2 22 9 0 9 -7 16 -16 16
-8 0 -22 7 -30 15 -18 17 -30 19 -39 5z"/>
<path d="M4352 2218 c7 -19 38 -22 38 -4 0 10 -9 16 -21 16 -12 0 -19 -5 -17
-12z"/>
<path d="M3960 2115 c0 -9 5 -15 11 -13 6 2 11 8 11 13 0 5 -5 11 -11 13 -6 2
-11 -4 -11 -13z"/>
<path d="M4050 2061 c0 -13 46 -41 67 -41 16 1 16 2 -2 12 -11 6 -24 17 -28
25 -9 15 -37 18 -37 4z"/>
<path d="M4158 2013 c-27 -7 -22 -33 6 -33 13 0 26 -7 30 -15 3 -8 12 -15 21
-15 21 0 19 26 -5 50 -20 20 -22 21 -52 13z"/>
<path d="M4245 1940 c-3 -5 3 -10 15 -10 12 0 18 5 15 10 -3 6 -10 10 -15 10
-5 0 -12 -4 -15 -10z"/>
<path d="M8925 4473 c-9 -51 -43 -220 -55 -263 -5 -19 -18 -100 -29 -180 -40
-284 -92 -535 -151 -725 -104 -340 -157 -474 -315 -787 -159 -314 -413 -686
-624 -913 -31 -33 -79 -86 -106 -118 -62 -72 -321 -312 -435 -404 -150 -121
-203 -158 -430 -305 -64 -41 -216 -127 -305 -170 -173 -86 -284 -138 -320
-151 -22 -8 -65 -25 -95 -36 -156 -61 -468 -158 -585 -182 -22 -4 -60 -13 -85
-19 -82 -19 -265 -50 -356 -60 -483 -52 -512 -54 -689 -41 -94 6 -215 18 -270
27 -55 8 -140 19 -190 24 -49 6 -110 14 -135 20 -25 6 -83 17 -130 25 -300 52
-676 178 -1017 341 -119 57 -385 207 -478 269 -212 143 -348 246 -505 383
-112 98 -412 403 -466 474 -27 35 -74 95 -106 133 -89 106 -239 324 -319 462
-126 216 -303 585 -353 738 -79 236 -100 305 -126 405 -56 220 -70 286 -85
390 -43 303 -97 530 -125 530 -11 0 -17 -251 -9 -336 4 -38 12 -114 17 -169 6
-55 15 -113 21 -128 6 -16 11 -42 11 -59 0 -17 6 -54 14 -82 23 -82 37 -138
45 -181 7 -38 19 -80 43 -150 5 -16 13 -47 18 -68 4 -21 13 -44 19 -50 6 -6
11 -22 11 -37 0 -14 7 -34 15 -44 8 -11 15 -29 15 -41 0 -12 7 -30 15 -41 8
-10 15 -27 15 -37 0 -11 6 -31 13 -45 15 -29 41 -87 61 -137 26 -62 129 -279
156 -325 5 -8 11 -22 14 -30 4 -8 15 -28 26 -45 11 -16 24 -39 29 -50 5 -11
20 -36 33 -55 13 -19 27 -42 31 -50 4 -8 16 -28 27 -45 11 -16 23 -37 27 -45
3 -8 19 -31 35 -51 15 -20 28 -40 28 -43 0 -10 260 -352 305 -401 20 -22 60
-67 90 -101 149 -168 395 -400 545 -514 25 -19 46 -38 48 -42 2 -4 20 -17 40
-30 20 -12 71 -47 112 -78 92 -68 174 -122 225 -150 11 -6 34 -19 50 -30 17
-11 39 -24 50 -30 11 -6 34 -19 50 -29 64 -41 473 -241 492 -241 6 0 26 -8 45
-17 18 -9 45 -22 60 -30 14 -7 34 -13 43 -13 9 0 29 -6 43 -14 30 -15 81 -33
127 -46 17 -5 46 -14 65 -20 19 -7 49 -16 65 -22 17 -6 48 -14 70 -18 22 -4
54 -12 70 -18 49 -17 117 -33 175 -42 30 -4 68 -13 83 -19 16 -6 45 -11 65
-11 20 -1 64 -7 97 -15 33 -8 89 -15 125 -15 36 0 84 -5 108 -10 59 -14 628
-21 792 -10 221 15 353 28 390 40 19 5 50 10 68 10 30 0 89 12 207 41 22 6 60
14 85 19 25 4 59 12 75 18 17 6 57 18 90 27 33 9 74 21 90 27 17 5 44 13 60
18 88 24 257 88 425 162 60 26 302 148 365 183 33 19 69 39 80 45 11 6 34 19
50 30 17 11 39 24 50 30 29 15 56 32 96 63 20 15 40 27 43 27 8 0 275 199 327
244 20 17 63 54 95 81 69 59 334 322 419 416 79 88 128 146 205 249 35 47 68
90 72 95 50 62 176 247 198 290 6 11 19 34 30 50 11 17 24 39 30 50 6 11 19
34 30 50 11 17 22 37 26 45 3 8 10 22 15 30 5 8 20 38 34 65 27 52 38 73 55
103 6 9 13 24 16 32 3 8 10 22 15 30 5 8 12 22 15 30 6 14 12 28 48 112 9 21
24 55 32 75 9 21 23 51 30 66 8 16 14 35 14 44 0 8 6 27 14 41 15 30 33 81 46
127 8 28 14 48 41 128 6 17 15 48 19 67 18 73 32 126 43 160 6 19 14 55 18 80
4 25 12 63 18 85 25 102 41 209 59 410 9 107 3 485 -8 485 -5 0 -12 -17 -15
-37z"/>
</g>
</svg>
