<?xml version="1.0" standalone="no"?>
<!DOCTYPE svg PUBLIC "-//W3C//DTD SVG 20010904//EN"
 "http://www.w3.org/TR/2001/REC-SVG-20010904/DTD/svg10.dtd">
<svg version="1.0" xmlns="http://www.w3.org/2000/svg"
 width="1024.000000pt" height="1024.000000pt" viewBox="0 0 1024.000000 1024.000000"
 preserveAspectRatio="xMidYMid meet">
<metadata>
Created by potrace 1.16, written by Peter Selinger 2001-2019
</metadata>
<g transform="translate(0.000000,1024.000000) scale(0.100000,-0.100000)"
fill="#000000" stroke="none">
<path d="M4760 10233 c-19 -1 -109 -10 -200 -19 -497 -48 -1016 -176 -1484
-366 -180 -73 -524 -246 -691 -348 -551 -334 -1059 -802 -1436 -1325 -769
-1067 -1076 -2316 -903 -3670 115 -903 462 -1745 1019 -2470 286 -372 661
-743 1020 -1011 639 -475 1426 -812 2183 -933 1057 -170 2124 -18 3060 435
533 257 935 545 1373 983 451 452 733 845 1014 1416 125 254 176 378 258 625
175 526 259 1060 259 1640 0 1074 -266 1972 -837 2830 -262 392 -560 727 -930
1041 -680 579 -1548 968 -2485 1115 -295 46 -555 64 -884 62 -166 0 -317 -3
-336 -5z m850 -1977 c637 -72 1188 -215 1751 -455 177 -76 445 -215 442 -229
-2 -6 3 -9 10 -6 16 6 223 -121 220 -135 -2 -6 3 -8 10 -6 6 3 23 -5 37 -16
29 -24 42 -27 -140 37 -497 178 -1056 304 -1635 368 -421 47 -1002 49 -1425 5
-667 -69 -1442 -261 -2004 -497 l-109 -45 7 -228 7 -227 -53 -12 c-29 -7 -124
-34 -210 -60 -87 -26 -158 -45 -158 -43 0 2 -9 45 -20 95 -46 203 -118 702
-107 731 8 20 436 232 632 313 547 225 1174 372 1810 423 173 14 766 6 935
-13z m630 -560 c702 -78 1324 -235 1813 -458 l67 -31 0 -61 c0 -153 -71 -810
-88 -828 -4 -3 -56 9 -117 28 -60 20 -168 50 -240 69 -109 28 -130 37 -128 52
1 10 9 79 17 153 9 74 16 176 16 225 l0 90 -43 18 c-597 260 -1413 483 -2112
576 -288 39 -452 52 -738 58 -158 3 -285 8 -283 10 17 17 498 85 721 103 77 6
160 12 185 14 121 10 794 -3 930 -18z m-4109 -526 c23 -113 57 -261 76 -330
20 -69 37 -135 40 -146 4 -19 -3 -24 -58 -43 -34 -11 -64 -19 -66 -18 -1 2
-10 73 -18 158 -14 142 -31 617 -21 594 3 -5 24 -102 47 -215z m2554 -190
c187 -13 381 -41 548 -80 137 -31 199 -55 115 -44 -60 8 -65 -11 -5 -20 130
-20 532 -178 822 -323 l160 -80 305 -6 c610 -12 973 -74 1410 -239 116 -44
370 -163 370 -173 0 -4 -6 -5 -13 -2 -8 3 -20 1 -28 -4 -9 -6 -2 -8 22 -5 30
4 51 -4 113 -40 42 -25 74 -49 71 -53 -2 -5 3 -8 13 -7 9 0 16 -5 14 -12 -1
-8 2 -11 8 -7 13 8 62 -34 55 -46 -3 -4 0 -11 6 -15 8 -4 9 -3 5 4 -4 7 -3 12
1 12 17 0 133 -132 133 -151 0 -5 -82 -9 -181 -9 l-181 0 16 25 c20 31 13 51
-49 133 -163 217 -589 393 -1115 461 -266 35 -461 47 -1090 71 -151 5 -344 13
-429 16 -153 7 -153 6 -146 -15 7 -24 2 -25 -108 -14 -60 5 -70 9 -82 33 -13
25 -18 27 -145 38 -158 15 -177 22 -195 67 -21 49 -20 138 3 158 42 38 160 30
326 -23 117 -38 160 -72 151 -122 -4 -24 0 -42 15 -65 19 -33 21 -33 97 -33
43 0 143 -2 223 -5 l145 -6 -147 76 c-396 202 -765 326 -1108 371 -153 20
-582 14 -780 -10 -183 -23 -424 -58 -429 -62 -3 -3 92 -222 105 -242 6 -10
1259 -107 1527 -118 87 -4 160 -11 164 -17 16 -27 -1875 110 -2159 157 -43 7
-78 9 -78 5 0 -4 21 -26 46 -48 53 -47 126 -77 222 -91 166 -24 784 -66 1582
-105 464 -23 837 -45 1087 -63 l98 -8 -185 -7 c-102 -4 -554 -9 -1005 -12
-1025 -7 -1304 -19 -1382 -57 -66 -32 -75 -74 -61 -273 l8 -100 -18 71 c-75
292 -247 478 -518 556 -71 21 -99 23 -279 22 -178 0 -214 -3 -326 -27 -335
-71 -668 -231 -715 -343 -18 -42 -44 -203 -44 -274 l-1 -55 -27 32 c-29 34
-56 99 -103 253 -61 202 -35 246 214 365 186 89 493 188 992 319 599 157 1081
239 1566 265 210 12 211 12 374 1z m-1796 -786 c149 -37 291 -144 358 -270 31
-59 87 -223 79 -231 -2 -3 -13 16 -24 40 -57 128 -180 258 -297 314 -173 82
-369 81 -552 -3 -135 -61 -242 -166 -314 -309 -25 -51 -29 -54 -23 -25 23 122
80 227 174 320 85 85 164 132 272 160 93 24 238 26 327 4z m4686 -9 c201 -52
357 -209 410 -414 9 -35 14 -65 12 -67 -2 -2 -15 22 -29 53 -72 165 -221 292
-399 339 -86 22 -244 22 -329 0 -171 -46 -330 -178 -395 -329 -27 -61 -15 1
13 70 83 204 239 331 446 364 68 10 197 3 271 -16z m-3526 -105 c23 -28 74
-75 112 -106 121 -98 134 -100 929 -134 486 -21 1392 -69 1397 -74 6 -6 -1750
-11 -2039 -6 l-296 5 -64 75 c-195 230 -228 270 -228 274 0 3 24 7 53 9 28 2
61 4 73 5 14 1 35 -14 63 -48z m2206 -463 c54 -16 109 -73 128 -133 9 -27 17
-94 19 -149 l3 -100 -102 -3 -103 -3 0 60 c0 33 -5 71 -11 85 -24 52 -135 57
-181 9 l-23 -25 0 -475 0 -475 28 -24 c40 -34 118 -34 152 1 22 21 25 33 25
100 l0 75 106 0 107 0 -5 -108 c-8 -171 -62 -261 -175 -293 -56 -15 -212 -16
-269 0 -56 15 -117 71 -145 133 l-24 53 0 540 c0 597 0 597 62 666 45 49 82
69 148 79 65 10 209 3 260 -13z m-3763 -247 l3 -260 105 256 c58 141 110 258
116 261 6 2 56 2 111 1 l101 -3 -135 -345 -134 -345 14 -45 c23 -68 117 -342
191 -552 l65 -188 -112 0 -112 0 -91 273 -92 272 -16 -37 c-13 -31 -16 -78
-16 -273 l0 -235 -107 0 -108 0 -2 723 c-1 397 0 730 3 740 5 15 19 17 110 17
l104 0 2 -260z m1445 233 c47 -25 76 -62 100 -125 22 -60 25 -438 4 -513 -16
-53 -95 -145 -126 -145 -8 0 -15 -5 -15 -11 0 -14 160 -642 167 -651 2 -5 -44
-8 -104 -8 l-108 0 -81 318 -81 317 -29 0 -29 0 -3 -317 -2 -318 -105 0 -105
0 0 741 0 740 238 -3 c223 -3 240 -4 279 -25z m443 -713 l0 -740 -105 0 -105
0 0 740 0 740 105 0 105 0 0 -740z m330 733 c0 -5 21 -93 46 -198 88 -370 154
-660 154 -679 0 -54 22 32 115 437 l100 442 103 3 102 3 0 -741 0 -740 -100 0
-100 0 -2 323 -3 322 -42 -180 c-24 -99 -58 -243 -76 -320 l-34 -140 -50 -3
-50 -3 -84 337 -84 337 -3 -337 -2 -336 -100 0 -100 0 0 740 0 740 105 0 c58
0 105 -3 105 -7z m2210 5 c0 -15 44 -325 60 -429 19 -123 150 -1033 150 -1044
0 -3 -47 -5 -104 -5 l-103 0 -12 108 c-20 168 -7 152 -125 152 l-102 0 -18
-107 c-28 -172 -12 -153 -132 -153 -103 0 -104 0 -99 23 12 57 245 1429 245
1446 0 7 41 11 120 11 66 0 120 -1 120 -2z m725 -12 c62 -19 110 -66 135 -134
16 -43 22 -89 27 -226 10 -280 -16 -367 -130 -441 -13 -9 -11 -25 18 -140 18
-71 51 -211 75 -310 23 -99 44 -188 46 -197 5 -16 -4 -18 -98 -18 l-104 0 -80
318 c-77 310 -80 317 -104 317 l-25 0 4 -317 3 -318 -111 0 -111 0 0 740 0
740 203 0 c149 0 217 -4 252 -14z m-4310 -694 l0 -107 -202 -3 -203 -2 0 110
0 110 203 0 202 0 0 -108z m138 -987 c353 -470 906 -939 1499 -1269 l67 -37
68 47 c37 27 96 70 131 96 34 27 68 46 74 42 6 -4 8 -3 5 3 -4 6 48 55 116
109 355 287 704 640 987 997 l84 107 128 0 c91 0 128 -3 128 -12 0 -6 -36 -81
-81 -167 -354 -679 -838 -1257 -1552 -1855 l-57 -48 -183 108 c-253 149 -371
223 -527 332 -528 368 -952 771 -1294 1227 -108 143 -286 412 -278 419 3 3
141 6 306 5 l301 0 78 -104z m3857 91 c0 -17 -84 -135 -93 -129 -6 3 -7 1 -3
-6 13 -20 -118 -213 -302 -446 -122 -155 -221 -264 -406 -453 -120 -121 -154
-151 -171 -146 -13 3 -16 2 -7 -4 9 -6 -1 -21 -40 -58 -84 -79 -270 -231 -433
-355 l-150 -113 146 154 c260 274 397 443 591 730 178 263 351 567 434 763
l28 67 203 0 c112 0 203 -2 203 -4z"/>
<path d="M3405 6736 c-244 -50 -294 -71 -280 -115 8 -25 45 -38 148 -51 79
-10 401 -39 403 -36 4 4 -99 236 -105 235 -3 0 -78 -15 -166 -33z"/>
<path d="M4835 6293 c11 -3 23 -10 27 -17 6 -8 8 -7 8 2 0 8 5 10 13 5 6 -4
19 -8 27 -9 83 -6 77 -9 -25 -14 -66 -3 98 -7 365 -8 267 -1 532 -4 590 -6
100 -5 101 -5 25 3 -44 5 -145 12 -225 15 -80 4 -212 11 -295 16 -197 12 -535
21 -510 13z"/>
<path d="M5812 4810 c0 -71 3 -105 8 -90 4 14 8 20 9 14 1 -6 13 -10 29 -9 15
1 37 3 49 3 12 1 24 10 26 20 4 13 5 12 6 -5 0 -12 6 -25 11 -28 6 -4 10 32 9
102 0 96 -2 104 -13 75 -6 -18 -15 -30 -20 -25 -12 12 -96 11 -97 -1 -1 -6 -5
5 -9 24 -5 23 -7 -5 -8 -80z"/>
<path d="M2651 4850 c-1 -13 -25 -15 -159 -15 -86 1 -165 -1 -174 -3 -15 -4
-18 -16 -18 -71 1 -45 4 -61 10 -50 7 12 19 14 61 9 28 -4 64 -6 80 -5 23 1
29 -2 29 -19 1 -15 8 -8 24 24 l24 45 13 -43 c7 -23 15 -39 18 -34 3 5 30 6
59 2 43 -5 52 -4 52 9 0 11 8 6 26 -14 30 -34 31 -37 -16 97 -16 46 -29 76
-29 68z"/>
<path d="M3640 5209 l0 -201 82 4 c73 4 84 7 105 32 22 26 23 35 23 170 0 130
-2 146 -21 170 -19 24 -26 26 -105 26 l-84 0 0 -201z"/>
<path d="M3867 4869 c-10 -6 -40 -9 -67 -7 -26 1 -47 1 -45 -2 2 -3 -62 -6
-142 -7 -80 -1 -151 -4 -159 -7 -10 -4 -14 -23 -14 -66 0 -68 -11 -62 107 -60
41 1 52 -3 56 -17 3 -10 5 10 6 45 l1 62 50 0 50 0 12 -43 11 -44 80 -1 79 -1
-6 30 c-3 16 -9 42 -12 59 -6 25 -3 30 20 36 14 3 26 10 26 15 0 6 -8 5 -19
-1 -29 -15 -48 -12 -25 5 22 17 17 19 -9 4z"/>
<path d="M4346 4864 c-3 -8 -11 -12 -17 -9 -6 4 -37 8 -70 9 l-59 1 0 -73 c0
-43 4 -71 9 -67 15 9 125 10 139 1 9 -5 12 13 12 73 0 81 -3 94 -14 65z"/>
<path d="M5150 4808 c0 -57 4 -98 8 -93 4 6 13 10 20 9 6 -1 34 -2 61 -3 44
-1 50 -4 59 -28 8 -22 11 -4 11 82 l1 111 -60 -6 c-50 -5 -64 -3 -80 12 -20
19 -20 18 -20 -84z"/>
<path d="M5086 4892 c-29 -3 -36 -6 -25 -13 9 -5 10 -9 2 -9 -6 0 -15 5 -18
10 -4 7 -13 7 -26 0 -11 -6 -23 -8 -28 -5 -10 6 -56 -174 -47 -183 3 -3 6 2 6
10 0 12 13 17 49 20 27 1 47 0 45 -3 -2 -4 3 -9 11 -13 8 -3 17 0 21 6 5 7 2
8 -7 4 -8 -4 -6 -1 3 6 13 12 64 169 55 172 -1 1 -20 0 -41 -2z"/>
<path d="M4531 4783 c1 -60 3 -99 6 -88 3 11 9 25 15 30 6 6 7 3 2 -9 -7 -17
-4 -18 22 -11 32 9 61 11 84 4 12 -3 16 11 18 84 l3 89 -66 -4 c-36 -1 -65 0
-65 5 0 4 -4 7 -10 7 -6 0 -10 -42 -9 -107z"/>
<path d="M4849 4853 c0 -19 -3 -23 -7 -13 -5 10 -20 16 -45 15 -22 0 -41 3
-44 8 -9 14 -22 7 -16 -10 5 -11 3 -14 -6 -8 -10 6 -11 0 -6 -26 12 -56 25
-84 33 -72 8 12 36 12 48 1 3 -4 12 -4 20 -1 8 3 14 0 14 -6 0 -6 4 -11 10
-11 5 0 7 7 3 16 -4 12 -2 15 8 12 8 -3 14 -9 15 -14 1 -14 23 -60 23 -50 1
14 -40 186 -45 186 -2 0 -4 -12 -5 -27z"/>
<path d="M6787 5075 c-4 -16 -18 -106 -32 -200 -14 -93 -27 -182 -30 -197 l-4
-28 69 0 c39 0 70 3 70 7 0 12 -61 427 -64 438 -2 6 -6 -3 -9 -20z"/>
<path d="M6982 4946 c3 -31 2 -35 -8 -22 -10 15 -12 15 -18 1 -4 -12 -15 -14
-46 -9 -30 5 -40 3 -40 -7 0 -11 -2 -11 -11 1 -12 16 -8 -37 13 -168 9 -60 13
-69 23 -56 10 14 17 15 43 6 24 -8 30 -8 26 2 -2 6 4 12 15 12 12 0 17 -5 13
-15 -4 -10 -1 -12 7 -6 8 4 17 2 22 -6 7 -11 9 -10 9 4 0 30 -41 292 -47 297
-3 3 -3 -12 -1 -34z"/>
<path d="M6576 4838 c-9 -57 -19 -116 -22 -133 -4 -20 -2 -26 4 -17 7 10 27
13 75 9 55 -3 67 -1 72 12 9 30 35 215 30 220 -3 2 -5 -1 -5 -7 0 -8 -7 -9
-27 -1 -15 6 -43 7 -62 4 -21 -4 -37 -2 -41 5 -4 6 -15 -35 -24 -92z"/>
<path d="M7410 5209 l0 -202 75 5 c115 8 115 8 115 195 0 150 -1 155 -25 178
-21 22 -33 25 -95 25 l-70 0 0 -201z"/>
<path d="M7222 4820 c-1 -80 2 -140 6 -134 4 6 35 14 70 17 53 4 64 3 70 -11
4 -10 9 11 12 48 l5 65 45 0 c42 0 45 -2 55 -36 17 -59 37 -72 105 -67 52 4
61 2 66 -15 13 -41 12 -8 -1 48 -20 83 -19 87 19 112 19 12 47 38 62 58 23 30
25 38 13 46 -10 6 -15 4 -17 -7 -3 -10 -11 -14 -23 -11 -10 3 -19 2 -19 -1 0
-4 -55 -7 -123 -7 -67 1 -170 -2 -229 -5 l-107 -5 -4 25 c-2 14 -5 -40 -5
-120z"/>
<path d="M4800 2511 c0 -24 -26 -33 -83 -31 -125 7 -202 -7 -167 -30 12 -8 12
-10 -5 -10 -19 -1 -19 -1 -2 -14 17 -13 16 -15 -14 -21 -26 -6 -29 -9 -16 -17
9 -5 20 -8 23 -8 4 1 10 -2 13 -7 8 -12 113 -83 123 -83 4 0 5 8 2 18 -5 14
-4 14 4 2 6 -8 9 -17 6 -21 -4 -7 106 -79 121 -79 4 0 5 6 2 14 -7 17 18 15
35 -2 8 -8 9 -12 1 -12 -6 0 -14 6 -16 13 -3 6 -6 7 -6 1 -1 -15 21 -42 38
-46 7 -2 15 5 16 15 2 9 0 17 -5 17 -4 0 -10 7 -14 15 -4 12 -2 13 13 6 21
-12 62 -11 55 1 -3 4 15 8 39 8 37 0 46 4 55 25 6 14 17 24 23 23 6 -2 13 12
15 30 3 25 -3 42 -23 67 -20 24 -30 31 -36 22 -6 -8 -7 -8 -4 3 5 19 -30 70
-49 70 -8 0 -14 7 -14 15 0 9 -9 15 -25 15 -17 0 -25 -6 -25 -17 0 -14 -2 -15
-17 -1 -10 9 -28 21 -40 27 -20 10 -23 9 -23 -8z"/>
</g>
</svg>
